<svg width="24" height="24" viewBox="0 0 24 24" fill="none" xmlns="http://www.w3.org/2000/svg">
<g filter="url(#filter0_d_0_1)">
<circle cx="12" cy="8" r="8" fill="#D9D9D9"/>
</g>
<path d="M11.824 9.232C11.824 9.024 11.8587 8.84267 11.928 8.688C11.9973 8.53333 12.0827 8.39467 12.184 8.272C12.2907 8.14933 12.4053 8.03733 12.528 7.936C12.6507 7.82933 12.7653 7.72533 12.872 7.624C12.9787 7.51733 13.064 7.40533 13.128 7.288C13.1973 7.17067 13.232 7.03467 13.232 6.88C13.232 6.624 13.1307 6.416 12.928 6.256C12.7253 6.096 12.4453 6.016 12.088 6.016C11.768 6.016 11.4907 6.06933 11.256 6.176C11.0213 6.28267 10.8213 6.44 10.656 6.648L10.072 6.232C10.296 5.94933 10.5813 5.73067 10.928 5.576C11.2747 5.416 11.68 5.336 12.144 5.336C12.528 5.336 12.8613 5.39467 13.144 5.512C13.4267 5.624 13.6453 5.78667 13.8 6C13.96 6.208 14.04 6.46133 14.04 6.76C14.04 6.984 14.0053 7.176 13.936 7.336C13.8667 7.496 13.7787 7.63733 13.672 7.76C13.5653 7.88267 13.4507 7.99733 13.328 8.104C13.2107 8.21067 13.0987 8.31733 12.992 8.424C12.8853 8.53067 12.7973 8.648 12.728 8.776C12.6587 8.904 12.624 9.056 12.624 9.232H11.824ZM12.232 11.048C12.0827 11.048 11.9573 10.9973 11.856 10.896C11.76 10.7947 11.712 10.6747 11.712 10.536C11.712 10.3867 11.76 10.264 11.856 10.168C11.9573 10.072 12.0827 10.024 12.232 10.024C12.3813 10.024 12.504 10.072 12.6 10.168C12.696 10.264 12.744 10.3867 12.744 10.536C12.744 10.6747 12.696 10.7947 12.6 10.896C12.504 10.9973 12.3813 11.048 12.232 11.048Z" fill="#505050"/>
<defs>
<filter id="filter0_d_0_1" x="0" y="0" width="24" height="24" filterUnits="userSpaceOnUse" color-interpolation-filters="sRGB">
<feFlood flood-opacity="0" result="BackgroundImageFix"/>
<feColorMatrix in="SourceAlpha" type="matrix" values="0 0 0 0 0 0 0 0 0 0 0 0 0 0 0 0 0 0 127 0" result="hardAlpha"/>
<feOffset dy="4"/>
<feGaussianBlur stdDeviation="2"/>
<feComposite in2="hardAlpha" operator="out"/>
<feColorMatrix type="matrix" values="0 0 0 0 0 0 0 0 0 0 0 0 0 0 0 0 0 0 0.25 0"/>
<feBlend mode="normal" in2="BackgroundImageFix" result="effect1_dropShadow_0_1"/>
<feBlend mode="normal" in="SourceGraphic" in2="effect1_dropShadow_0_1" result="shape"/>
</filter>
</defs>
</svg>
