<svg width="16" height="16" viewBox="0 0 16 16" fill="none" xmlns="http://www.w3.org/2000/svg">
<circle cx="8" cy="8" r="8" fill="#D9D9D9"/>
<path d="M7.824 9.232C7.824 9.024 7.85867 8.84267 7.928 8.688C7.99733 8.53333 8.08267 8.39467 8.184 8.272C8.29067 8.14933 8.40533 8.03733 8.528 7.936C8.65067 7.82933 8.76533 7.72533 8.872 7.624C8.97867 7.51733 9.064 7.40533 9.128 7.288C9.19733 7.17067 9.232 7.03467 9.232 6.88C9.232 6.624 9.13067 6.416 8.928 6.256C8.72533 6.096 8.44533 6.016 8.088 6.016C7.768 6.016 7.49067 6.06933 7.256 6.176C7.02133 6.28267 6.82133 6.44 6.656 6.648L6.072 6.232C6.296 5.94933 6.58133 5.73067 6.928 5.576C7.27467 5.416 7.68 5.336 8.144 5.336C8.528 5.336 8.86133 5.39467 9.144 5.512C9.42667 5.624 9.64533 5.78667 9.8 6C9.96 6.208 10.04 6.46133 10.04 6.76C10.04 6.984 10.0053 7.176 9.936 7.336C9.86667 7.496 9.77867 7.63733 9.672 7.76C9.56533 7.88267 9.45067 7.99733 9.328 8.104C9.21067 8.21067 9.09867 8.31733 8.992 8.424C8.88533 8.53067 8.79733 8.648 8.728 8.776C8.65867 8.904 8.624 9.056 8.624 9.232H7.824ZM8.232 11.048C8.08267 11.048 7.95733 10.9973 7.856 10.896C7.76 10.7947 7.712 10.6747 7.712 10.536C7.712 10.3867 7.76 10.264 7.856 10.168C7.95733 10.072 8.08267 10.024 8.232 10.024C8.38133 10.024 8.504 10.072 8.6 10.168C8.696 10.264 8.744 10.3867 8.744 10.536C8.744 10.6747 8.696 10.7947 8.6 10.896C8.504 10.9973 8.38133 11.048 8.232 11.048Z" fill="#505050"/>
</svg>
