<?xml version="1.0" encoding="UTF-8"?>
<!DOCTYPE svg PUBLIC "-//W3C//DTD SVG 1.1//EN" "http://www.w3.org/Graphics/SVG/1.1/DTD/svg11.dtd">
<svg xmlns="http://www.w3.org/2000/svg" version="1.1" width="590px" height="156px" style="shape-rendering:geometricPrecision; text-rendering:geometricPrecision; image-rendering:optimizeQuality; fill-rule:evenodd; clip-rule:evenodd" xmlns:xlink="http://www.w3.org/1999/xlink">
<g><path style="opacity:0.932" fill="#1564c0" d="M 306.5,-0.5 C 400.833,-0.5 495.167,-0.5 589.5,-0.5C 589.5,51.5 589.5,103.5 589.5,155.5C 495.167,155.5 400.833,155.5 306.5,155.5C 306.5,148.833 306.5,142.167 306.5,135.5C 310.167,135.5 313.833,135.5 317.5,135.5C 317.5,138.5 317.5,141.5 317.5,144.5C 404.5,144.5 491.5,144.5 578.5,144.5C 578.5,99.8333 578.5,55.1667 578.5,10.5C 491.5,10.5 404.5,10.5 317.5,10.5C 317.5,13.5 317.5,16.5 317.5,19.5C 313.833,19.5 310.167,19.5 306.5,19.5C 306.5,12.8333 306.5,6.16667 306.5,-0.5 Z"/></g>
<g><path style="opacity:0.928" fill="#000000" d="M -0.5,23.5 C -0.5,22.1667 -0.5,20.8333 -0.5,19.5C 1.926,11.5938 7.25933,8.42716 15.5,10C 23.504,13.9537 25.6707,20.1203 22,28.5C 14.6676,35.4592 7.66758,35.1259 1,27.5C 0.78997,25.9419 0.28997,24.6085 -0.5,23.5 Z"/></g>
<g><path style="opacity:0.941" fill="#000000" d="M 56.5,23.5 C 58.1667,23.5 59.8333,23.5 61.5,23.5C 61.5,29.5 61.5,35.5 61.5,41.5C 68.1667,41.5 74.8333,41.5 81.5,41.5C 81.5,47.1667 81.5,52.8333 81.5,58.5C 74.8333,58.5 68.1667,58.5 61.5,58.5C 61.3335,70.5046 61.5001,82.5046 62,94.5C 63.1271,97.0684 65.1271,98.4018 68,98.5C 71.0088,97.9971 73.8422,96.9971 76.5,95.5C 79.1725,100.017 81.1725,104.851 82.5,110C 72.9678,116.789 62.6344,118.122 51.5,114C 44.4841,109.473 40.9841,102.973 41,94.5C 40.5001,82.5046 40.3335,70.5046 40.5,58.5C 37.1667,58.5 33.8333,58.5 30.5,58.5C 30.5,52.8333 30.5,47.1667 30.5,41.5C 33.8333,41.5 37.1667,41.5 40.5,41.5C 40.5,36.8333 40.5,32.1667 40.5,27.5C 46.0202,26.4533 51.3536,25.12 56.5,23.5 Z"/></g>
<g><path style="opacity:0.946" fill="#000000" d="M 124.5,39.5 C 145.893,40.3932 158.393,51.3932 162,72.5C 162.796,76.7548 162.629,80.9215 161.5,85C 144.167,85.3333 126.833,85.6667 109.5,86C 115.407,97.613 124.74,101.613 137.5,98C 141.368,96.9886 145.034,95.4886 148.5,93.5C 151.6,98.367 154.1,103.367 156,108.5C 135.66,120.217 116.326,118.883 98,104.5C 86.193,88.3247 85.5263,71.6581 96,54.5C 103.464,45.4164 112.964,40.4164 124.5,39.5 Z M 121.5,57.5 C 132.788,55.9644 139.788,60.6311 142.5,71.5C 131.5,71.5 120.5,71.5 109.5,71.5C 111.025,64.6464 115.025,59.9797 121.5,57.5 Z"/></g>
<g><path style="opacity:0.957" fill="#000000" d="M 202.5,39.5 C 210.516,39.5022 217.849,41.6688 224.5,46C 225.701,46.9025 226.535,48.0692 227,49.5C 227.497,46.854 227.664,44.1873 227.5,41.5C 233.833,41.5 240.167,41.5 246.5,41.5C 246.667,63.1692 246.5,84.8359 246,106.5C 244.004,120.163 236.504,129.33 223.5,134C 208.165,138.083 193.498,136.416 179.5,129C 177.789,127.867 177.289,126.367 178,124.5C 179.97,120.871 182.304,117.538 185,114.5C 194.263,120.021 204.096,121.521 214.5,119C 221.666,116.19 225.166,111.023 225,103.5C 221.703,106.567 217.869,108.733 213.5,110C 194.744,113.541 181.577,106.708 174,89.5C 169.741,74.9716 172.074,61.6382 181,49.5C 187.191,43.818 194.357,40.4846 202.5,39.5 Z M 207.5,57.5 C 222.734,59.3096 228.567,67.6429 225,82.5C 219.866,92.3861 212.032,95.2194 201.5,91C 190.409,81.7611 189.742,71.7611 199.5,61C 202.158,59.522 204.825,58.3554 207.5,57.5 Z"/></g>
<g><path style="opacity:0.952" fill="#000000" d="M 294.5,39.5 C 319.93,40.1035 333.93,52.9368 336.5,78C 335.94,96.9022 326.606,109.236 308.5,115C 286.763,119.713 270.929,112.213 261,92.5C 254.141,63.2288 265.307,45.5621 294.5,39.5 Z M 296.5,58.5 C 314.716,62.6005 319.882,73.2671 312,90.5C 302.333,99.8333 292.667,99.8333 283,90.5C 275.403,74.4121 279.903,63.7454 296.5,58.5 Z"/></g>
<g><path style="opacity:0.937" fill="#000000" d="M 1.5,41.5 C 8.5,41.5 15.5,41.5 22.5,41.5C 22.5,65.8333 22.5,90.1667 22.5,114.5C 15.5,114.5 8.5,114.5 1.5,114.5C 1.5,90.1667 1.5,65.8333 1.5,41.5 Z"/></g>
<g><path style="opacity:0.951" fill="#000000" d="M 379.5,41.5 C 399.942,39.79 412.776,48.79 418,68.5C 421.22,84.1351 417.387,97.6351 406.5,109C 392.993,117.805 379.659,117.638 366.5,108.5C 365.502,117.141 365.169,125.808 365.5,134.5C 358.833,134.5 352.167,134.5 345.5,134.5C 345.5,103.833 345.5,73.1667 345.5,42.5C 351.833,42.5 358.167,42.5 364.5,42.5C 364.337,44.8568 364.503,47.1902 365,49.5C 369.408,45.8833 374.241,43.2166 379.5,41.5 Z M 380.5,59.5 C 391.969,60.6361 397.969,66.9695 398.5,78.5C 396.673,94.0714 388.339,99.5714 373.5,95C 363.261,84.6205 362.928,73.9538 372.5,63C 375.158,61.522 377.825,60.3554 380.5,59.5 Z"/></g>
<g><path style="opacity:0.955" fill="#000000" d="M 466.5,41.5 C 469.167,41.5 471.833,41.5 474.5,41.5C 474.5,48.8333 474.5,56.1667 474.5,63.5C 464.195,62.4008 456.695,66.4008 452,75.5C 450.557,88.4258 450.057,101.426 450.5,114.5C 443.833,114.5 437.167,114.5 430.5,114.5C 430.5,90.5 430.5,66.5 430.5,42.5C 436.833,42.5 443.167,42.5 449.5,42.5C 449.335,46.1817 449.501,49.8484 450,53.5C 454.233,47.6449 459.733,43.6449 466.5,41.5 Z"/></g>
<g><path style="opacity:0.954" fill="#000000" d="M 511.5,41.5 C 534.639,38.9714 549.806,48.6381 557,70.5C 559.797,93.7455 549.964,108.579 527.5,115C 504.328,118.009 489.161,108.509 482,86.5C 479.322,63.1695 489.155,48.1695 511.5,41.5 Z M 517.5,59.5 C 529.592,60.4248 536.258,66.9248 537.5,79C 535.032,93.4872 526.698,99.1539 512.5,96C 501.647,89.4357 498.814,80.269 504,68.5C 507.528,63.8341 512.028,60.8341 517.5,59.5 Z"/></g>
<g><path style="opacity:0.895" fill="#1564c0" d="M 516.5,69.5 C 527.084,69.7417 530.417,74.7417 526.5,84.5C 523.29,87.2224 519.624,88.0557 515.5,87C 510.845,84.1034 509.345,79.9367 511,74.5C 512.406,72.2563 514.239,70.5897 516.5,69.5 Z"/></g>
</svg>
