<?xml version="1.0" standalone="no"?>
<!DOCTYPE svg PUBLIC "-//W3C//DTD SVG 20010904//EN"
 "http://www.w3.org/TR/2001/REC-SVG-20010904/DTD/svg10.dtd">
<svg version="1.0" xmlns="http://www.w3.org/2000/svg"
 width="590.000000pt" height="156.000000pt" viewBox="0 0 590.000000 156.000000"
 preserveAspectRatio="xMidYMid meet">
<metadata>
Created by potrace 1.16, written by Peter Selinger 2001-2019
</metadata>
<g transform="translate(0.000000,156.000000) scale(0.100000,-0.100000)"
fill="#000000" stroke="none">
<path d="M3070 1460 l0 -100 55 0 55 0 0 45 0 45 1305 0 1305 0 0 -670 0 -670
-1305 0 -1305 0 0 45 0 45 -55 0 -55 0 0 -100 0 -100 1415 0 1415 0 0 780 0
780 -1415 0 -1415 0 0 -100z"/>
<path d="M71 1447 c-42 -21 -66 -64 -65 -114 1 -40 6 -51 39 -81 34 -32 41
-34 88 -29 70 6 107 46 107 115 0 27 -7 57 -16 70 -32 47 -103 65 -153 39z"/>
<path d="M493 1298 l-83 -20 0 -69 0 -69 -50 0 -50 0 0 -85 0 -85 49 0 49 0 4
-207 c3 -184 6 -213 25 -254 38 -84 126 -127 236 -115 59 6 157 42 157 57 0 9
-48 141 -54 146 -1 2 -19 -4 -39 -12 -49 -20 -73 -19 -97 5 -19 19 -20 33 -20
200 l0 180 100 0 100 0 0 85 0 85 -100 0 -100 0 0 90 c0 105 7 101 -127 68z"/>
<path d="M1202 1149 c-219 -37 -355 -256 -298 -479 52 -203 271 -320 499 -266
60 14 167 59 167 71 0 3 -59 116 -75 142 0 1 -30 -9 -64 -23 -93 -38 -185 -37
-248 2 -25 16 -54 45 -65 64 l-18 35 262 5 263 5 3 45 c2 25 -2 72 -8 105 -41
206 -215 329 -418 294z m156 -196 c31 -23 72 -80 72 -99 0 -11 -33 -14 -165
-14 -132 0 -165 3 -165 13 0 25 57 93 91 110 45 23 130 18 167 -10z"/>
<path d="M1989 1150 c-135 -23 -235 -132 -259 -284 -28 -175 56 -343 197 -396
107 -40 253 -21 321 42 l22 22 -14 -49 c-39 -129 -185 -171 -347 -99 -33 15
-61 25 -62 23 -28 -35 -67 -115 -63 -126 3 -7 34 -27 69 -43 133 -63 320 -62
439 2 70 37 111 82 147 158 l26 55 3 343 3 342 -95 0 -96 0 0 -42 c-1 -34 -3
-39 -11 -26 -16 29 -90 66 -153 77 -65 12 -61 12 -127 1z m177 -189 c164 -75
119 -331 -58 -331 -64 0 -114 24 -143 69 -64 99 -25 229 80 266 53 19 72 18
121 -4z"/>
<path d="M2908 1150 c-120 -21 -227 -100 -281 -209 -30 -61 -32 -73 -32 -166
0 -93 2 -105 33 -167 41 -83 120 -158 200 -189 81 -32 223 -32 305 0 76 30
167 114 204 189 25 52 28 67 28 167 0 106 -1 112 -34 173 -60 110 -161 182
-288 202 -65 11 -68 11 -135 0z m169 -216 c77 -44 108 -166 63 -254 -65 -128
-255 -127 -321 2 -43 85 -12 208 65 254 64 38 123 37 193 -2z"/>
<path d="M20 775 l0 -365 105 0 105 0 0 365 0 365 -105 0 -105 0 0 -365z"/>
<path d="M3767 1126 c-21 -8 -56 -26 -77 -40 l-40 -26 0 35 0 35 -95 0 -95 0
0 -460 0 -460 100 0 100 0 0 130 c0 126 5 145 29 116 6 -8 35 -24 63 -36 44
-19 65 -22 133 -18 131 7 217 66 274 188 24 50 26 66 26 180 0 114 -2 130 -26
180 -35 74 -76 120 -141 155 -43 24 -67 29 -133 32 -52 2 -93 -2 -118 -11z
m133 -191 c79 -41 113 -159 71 -250 -22 -48 -44 -69 -95 -90 -104 -44 -216 47
-216 175 0 138 125 224 240 165z"/>
<path d="M4631 1123 c-24 -9 -64 -35 -88 -59 l-43 -43 0 54 0 55 -95 0 -95 0
0 -360 0 -360 100 0 100 0 0 175 c0 187 7 224 53 274 31 34 95 61 145 61 l42
0 0 110 0 110 -37 -1 c-21 0 -58 -8 -82 -16z"/>
<path d="M5083 1126 c-101 -33 -194 -114 -236 -204 -31 -69 -32 -236 0 -305
33 -70 113 -149 186 -183 56 -26 72 -29 167 -29 95 0 111 3 167 29 74 34 153
112 185 183 18 40 22 66 23 153 0 101 -1 108 -34 168 -41 76 -104 135 -178
169 -69 32 -212 41 -280 19z m198 -192 c55 -28 99 -105 99 -174 -1 -36 -33
-101 -66 -131 -113 -103 -294 -17 -294 139 0 138 141 227 261 166z"/>
<path d="M5155 848 c-52 -30 -62 -102 -20 -143 57 -58 155 -13 155 71 0 58
-82 102 -135 72z"/>
</g>
</svg>
