<svg width="37" height="76" viewBox="0 0 37 76" fill="none" xmlns="http://www.w3.org/2000/svg">
<path d="M3.42762 66.1801C2.97477 66.4962 2.86396 67.1196 3.1801 67.5725L8.33199 74.952C8.64814 75.4049 9.27153 75.5157 9.72437 75.1996C10.1772 74.8834 10.288 74.26 9.97189 73.8072L5.39244 67.2476L11.9521 62.6681C12.4049 62.352 12.5157 61.7286 12.1996 61.2757C11.8834 60.8229 11.26 60.7121 10.8072 61.0282L3.42762 66.1801ZM0.857521 1.98983C16.3259 4.21729 25.4335 9.63221 30.1876 16.255C34.9353 22.869 35.4796 30.8817 33.4089 38.6163C31.3357 46.3603 26.6591 53.7318 21.1289 58.9106C15.5619 64.1239 9.33928 66.9335 4.17508 66.0155L3.82503 67.9846C9.91072 69.0664 16.7505 65.7509 22.496 60.3705C28.2782 54.9555 33.1641 47.2646 35.3409 39.1335C37.5202 30.9932 37.0021 22.3185 31.8123 15.0887C26.6289 7.86785 16.9241 2.2828 1.14258 0.0102515L0.857521 1.98983Z" fill="#1565C0"/>
</svg>
